<svg version="1.2" baseProfile="tiny-ps" xmlns="http://www.w3.org/2000/svg" viewBox="0 0 204 142" width="204" height="142">
	<title>youtube-icon-svg</title>
	<style>
		tspan { white-space:pre }
		.shp0 { fill: #ffffff } 
	</style>
	<g >
		<g >
			<path fill-rule="evenodd" class="shp0" d="M101.94 0.22C101.94 0.22 165.28 0.22 181.15 4.6C189.77 6.84 196.64 13.72 198.89 22.34C203.26 38.2 203.14 71.19 203.14 71.19C203.14 71.19 203.14 104.05 198.89 119.79C196.64 128.53 189.77 135.28 181.15 137.65C165.28 141.78 101.94 141.78 101.94 141.78C101.94 141.78 38.84 141.78 22.85 137.53C14.23 135.16 7.36 128.28 4.99 119.66C0.86 104.05 0.86 71.06 0.86 71.06C0.86 71.06 0.86 38.2 4.99 22.34C7.36 13.72 14.36 6.72 22.85 4.35C38.72 0.22 101.94 0.22 101.94 0.22ZM81.82 40.7L81.82 101.3L134.42 71.06L81.82 40.7Z" />
		</g>
	</g>
</svg>